<svg width="753" height="288" xmlns="http://www.w3.org/2000/svg" xmlns:xlink="http://www.w3.org/1999/xlink" overflow="hidden"><g><rect x="0" y="0" width="753" height="287.873" fill="#FFFFFF"/><rect x="415" y="9.99559" width="313" height="38.9827" fill="#D1D1D1"/><text font-family="Aptos,Aptos_MSFontService,sans-serif" font-weight="400" font-size="24" transform="matrix(1 0 0 0.999557 440.259 37)">“</text><text font-family="Aptos,Aptos_MSFontService,sans-serif" font-weight="400" font-size="24" transform="matrix(1 0 0 0.999557 451.097 37)">Item definition</text><text font-family="Aptos,Aptos_MSFontService,sans-serif" font-weight="400" font-size="24" transform="matrix(1 0 0 0.999557 600.17 37)">”</text><text font-family="Aptos,Aptos_MSFontService,sans-serif" font-weight="400" font-size="24" transform="matrix(1 0 0 0.999557 614.763 37)">package</text><rect x="22" y="9.99559" width="320" height="38.9827" fill="#D1D1D1"/><text font-family="Aptos,Aptos_MSFontService,sans-serif" font-weight="400" font-size="24" transform="matrix(1 0 0 0.999557 31.4731 37)">Proxy of “ESL” system mo</text><text font-family="Aptos,Aptos_MSFontService,sans-serif" font-weight="400" font-size="24" transform="matrix(1 0 0 0.999557 291.715 37)">d</text><text font-family="Aptos,Aptos_MSFontService,sans-serif" font-weight="400" font-size="24" transform="matrix(1 0 0 0.999557 305.221 37)">el</text><text font-family="Aptos,Aptos_MSFontService,sans-serif" font-weight="400" font-size="19" transform="matrix(1 0 0 0.999557 347.613 62)">Contained</text><text font-family="Aptos,Aptos_MSFontService,sans-serif" font-weight="400" font-size="19" transform="matrix(1 0 0 0.999557 432.411 62)">E</text><text font-family="Aptos,Aptos_MSFontService,sans-serif" font-weight="400" font-size="19" transform="matrix(1 0 0 0.999557 442.749 62)">lements</text><rect x="41" y="110.951" width="282" height="38.9828" fill="#D1D1D1"/><text font-family="Aptos,Aptos_MSFontService,sans-serif" font-weight="400" font-size="24" transform="matrix(1 0 0 0.999557 50.4816 138)">Real</text><text font-family="Aptos,Aptos_MSFontService,sans-serif" font-weight="400" font-size="24" transform="matrix(1 0 0 0.999557 100.257 138)">“ESL” system model</text><path d="M185.001 48.9783 185.001 96.2392 178.999 96.2392 178.999 48.9783ZM191.004 93.2392 182 111.239 172.996 93.2392Z" fill="#FF0000"/><text font-family="Aptos,Aptos_MSFontService,sans-serif" font-weight="400" font-size="19" transform="matrix(1 0 0 0.999557 191.544 83)">OriginalModel</text><path d="M4.34428e-06-3 57.5001-2.99992 57.5 3.00008-4.34428e-06 3ZM54.5001-8.99992 72.5001 0.000104987 54.5 9.00008Z" fill="#FF0000" transform="matrix(-1.00044 0 0 1 414.532 29.9868)"/><path d="M326.322 238.854 279.574 187.953 267.158 199.346 269.194 151.74 316.822 153.775 304.406 165.167 351.154 216.068Z" stroke="#042433" stroke-width="2.0004" stroke-miterlimit="8" fill="#156082" fill-rule="evenodd"/><text font-family="Aptos,Aptos_MSFontService,sans-serif" font-weight="400" font-size="24" transform="matrix(1 0 0 0.999557 191.544 266)">The target of `selection[0]`</text></g></svg>